STARTFONT 2.1
FONT -FontForge-8BIT WONDER-Book-R-Normal--16-150-75-75-P-151-ISO10646-1
SIZE 15 75 75
FONTBOUNDINGBOX 22 16 0 0
COMMENT "Generated by fontforge, http://fontforge.sourceforge.net"
COMMENT "(c)2001 Joiro Hatgaya | Freeware, but look at readme file. | JOIRO@HOTMAIL.COM"
STARTPROPERTIES 39
FOUNDRY "FontForge"
FAMILY_NAME "8BIT WONDER"
WEIGHT_NAME "Book"
SLANT "R"
SETWIDTH_NAME "Normal"
ADD_STYLE_NAME ""
PIXEL_SIZE 16
POINT_SIZE 150
RESOLUTION_X 75
RESOLUTION_Y 75
SPACING "P"
AVERAGE_WIDTH 151
CHARSET_REGISTRY "ISO10646"
CHARSET_ENCODING "1"
FONTNAME_REGISTRY ""
CHARSET_COLLECTIONS "ISO10646-1"
FONT_NAME "8BITWONDERNominal"
FACE_NAME "8BIT WONDER Nominal"
COPYRIGHT "(c)2001 Joiro Hatgaya | Freeware, but look at readme file. | JOIRO@HOTMAIL.COM"
FONT_VERSION "0.70 | 26.01.2001"
FONT_ASCENT 16
FONT_DESCENT 0
UNDERLINE_POSITION 0
UNDERLINE_THICKNESS 0
X_HEIGHT 12
CAP_HEIGHT 12
RAW_ASCENT 1000
RAW_DESCENT 0
NORM_SPACE 8
RELATIVE_WEIGHT 40
RELATIVE_SETWIDTH 50
SUPERSCRIPT_X 0
SUPERSCRIPT_Y 7
SUPERSCRIPT_SIZE 10
SUBSCRIPT_X 0
SUBSCRIPT_Y 2
SUBSCRIPT_SIZE 10
AVG_LOWERCASE_WIDTH 163
AVG_UPPERCASE_WIDTH 163
ENDPROPERTIES
CHARS 72
STARTCHAR space
ENCODING 32
SWIDTH 500 0
DWIDTH 8 0
BBX 1 1 0 0
BITMAP
00
ENDCHAR
STARTCHAR numbersign
ENCODING 35
SWIDTH 1000 0
DWIDTH 16 0
BBX 16 16 0 0
BITMAP
FFFF
FFFF
FFFF
E007
E007
E007
E007
E007
E007
E007
E007
E007
E007
FFFF
FFFF
FFFF
ENDCHAR
STARTCHAR parenleft
ENCODING 40
SWIDTH 500 0
DWIDTH 8 0
BBX 8 13 0 0
BITMAP
7F
FF
FF
F8
F8
F8
F8
F8
F8
F8
FF
FF
7F
ENDCHAR
STARTCHAR parenright
ENCODING 41
SWIDTH 500 0
DWIDTH 8 0
BBX 8 13 0 0
BITMAP
FE
FF
FF
1F
1F
1F
1F
1F
1F
1F
FF
FF
FE
ENDCHAR
STARTCHAR asterisk
ENCODING 42
SWIDTH 1000 0
DWIDTH 16 0
BBX 13 13 0 0
BITMAP
4018
E018
5840
18E0
18C0
0700
0700
0300
18E0
18E0
4000
E018
4018
ENDCHAR
STARTCHAR zero
ENCODING 48
SWIDTH 1000 0
DWIDTH 16 0
BBX 13 13 1 0
BITMAP
7FF0
FFF8
FFF8
F8F8
F8F8
FFF8
FFF8
FFF8
F8F8
F8F8
FFF8
FFF8
7FF0
ENDCHAR
STARTCHAR one
ENCODING 49
SWIDTH 500 0
DWIDTH 8 0
BBX 7 13 0 0
BITMAP
F8
FE
FE
7E
7E
7E
7E
7E
7E
7E
7E
7E
7E
ENDCHAR
STARTCHAR two
ENCODING 50
SWIDTH 1000 0
DWIDTH 16 0
BBX 13 13 1 0
BITMAP
FFF0
FFF8
FFF8
00F8
00F8
7FF8
FFF0
FFF0
F800
F800
FFF8
FFF8
FFF8
ENDCHAR
STARTCHAR three
ENCODING 51
SWIDTH 1000 0
DWIDTH 16 0
BBX 13 13 1 0
BITMAP
FFF0
FFF8
FFF8
00F8
00F8
0FF0
0FF0
0FF0
00F8
00F8
FFF8
FFF8
FFF0
ENDCHAR
STARTCHAR four
ENCODING 52
SWIDTH 1000 0
DWIDTH 16 0
BBX 13 13 1 0
BITMAP
F8F8
F8F8
F8F8
F8F8
F8F8
FFF8
7FF8
7FF8
00F8
00F8
00F8
00F8
00F8
ENDCHAR
STARTCHAR five
ENCODING 53
SWIDTH 1000 0
DWIDTH 16 0
BBX 13 13 1 0
BITMAP
FFF8
FFF8
FFF8
F800
F800
FFF0
7FF8
7FF8
00F8
00F8
FFF8
FFF8
FFF0
ENDCHAR
STARTCHAR six
ENCODING 54
SWIDTH 1000 0
DWIDTH 16 0
BBX 13 13 1 0
BITMAP
7FF8
FFF8
FFF8
F800
F800
FFF0
FFF8
FFF8
F8F8
F8F8
FFF8
FFF8
7FF0
ENDCHAR
STARTCHAR seven
ENCODING 55
SWIDTH 1000 0
DWIDTH 16 0
BBX 13 13 1 0
BITMAP
FFF0
FFF8
FFF8
00F8
00F8
00F8
00F8
00F8
00F8
00F8
00F8
00F8
00F8
ENDCHAR
STARTCHAR eight
ENCODING 56
SWIDTH 1000 0
DWIDTH 16 0
BBX 13 13 1 0
BITMAP
7FF0
FFF8
FFF8
F8F8
F8F8
7FF0
7FF0
7FF0
F8F8
F8F8
FFF8
FFF8
7FF0
ENDCHAR
STARTCHAR nine
ENCODING 57
SWIDTH 1000 0
DWIDTH 16 0
BBX 13 13 1 0
BITMAP
7FF0
FFF8
FFF8
F8F8
F8F8
FFF8
7FF8
7FF8
00F8
00F8
FFF8
FFF8
FFF0
ENDCHAR
STARTCHAR A
ENCODING 65
SWIDTH 1000 0
DWIDTH 16 0
BBX 13 13 1 0
BITMAP
7FF0
FFF8
FFF8
F8F8
F8F8
FFF8
FFF8
FFF8
F8F8
F8F8
F8F8
F8F8
F8F8
ENDCHAR
STARTCHAR B
ENCODING 66
SWIDTH 1000 0
DWIDTH 16 0
BBX 13 13 1 0
BITMAP
FFF0
FFF8
FFF8
F8F8
F8F8
FFF0
FFF0
FFF0
F8F8
F8F8
FFF8
FFF8
FFF0
ENDCHAR
STARTCHAR C
ENCODING 67
SWIDTH 1000 0
DWIDTH 16 0
BBX 13 13 1 0
BITMAP
7FF8
FFF8
FFF8
F800
F800
F800
F800
F800
F800
F800
FFF8
FFF8
7FF8
ENDCHAR
STARTCHAR D
ENCODING 68
SWIDTH 1000 0
DWIDTH 16 0
BBX 13 13 1 0
BITMAP
FFF0
FFF8
FFF8
F8F8
F8F8
F8F8
F8F8
F8F8
F8F8
F8F8
FFF8
FFF8
FFF0
ENDCHAR
STARTCHAR E
ENCODING 69
SWIDTH 1000 0
DWIDTH 16 0
BBX 13 13 1 0
BITMAP
7FF8
FFF8
FFF8
F800
F800
FF80
FF80
FF80
F800
F800
FFF8
FFF8
7FF8
ENDCHAR
STARTCHAR F
ENCODING 70
SWIDTH 1000 0
DWIDTH 16 0
BBX 13 13 1 0
BITMAP
7FF8
FFF8
FFF8
F800
F800
FF80
FF80
FF80
F800
F800
F800
F800
F800
ENDCHAR
STARTCHAR G
ENCODING 71
SWIDTH 1000 0
DWIDTH 16 0
BBX 13 13 1 0
BITMAP
7FF8
FFF8
FFF8
F800
F800
F9F8
F9F8
F9F8
F8F8
F8F8
FFF8
FFF8
7FF8
ENDCHAR
STARTCHAR H
ENCODING 72
SWIDTH 1000 0
DWIDTH 16 0
BBX 13 13 1 0
BITMAP
F8F8
F8F8
F8F8
F8F8
F8F8
FFF8
FFF8
FFF8
F8F8
F8F8
F8F8
F8F8
F8F8
ENDCHAR
STARTCHAR I
ENCODING 73
SWIDTH 500 0
DWIDTH 8 0
BBX 5 13 1 0
BITMAP
F8
F8
F8
F8
F8
F8
F8
F8
F8
F8
F8
F8
F8
ENDCHAR
STARTCHAR J
ENCODING 74
SWIDTH 1000 0
DWIDTH 16 0
BBX 13 13 1 0
BITMAP
00F8
00F8
00F8
00F8
00F8
00F8
00F8
00F8
00F8
00F8
FFF8
FFF8
FFF0
ENDCHAR
STARTCHAR K
ENCODING 75
SWIDTH 1000 0
DWIDTH 16 0
BBX 13 13 1 0
BITMAP
F8F8
F8F8
F8F8
F8F8
F8F8
FFF0
FFF0
FFF0
F8F8
F8F8
F8F8
F8F8
F8F8
ENDCHAR
STARTCHAR L
ENCODING 76
SWIDTH 1000 0
DWIDTH 16 0
BBX 13 13 1 0
BITMAP
F800
F800
F800
F800
F800
F800
F800
F800
F800
F800
FFF8
FFF8
FFF8
ENDCHAR
STARTCHAR M
ENCODING 77
SWIDTH 1500 0
DWIDTH 24 0
BBX 21 13 1 0
BITMAP
FFFFF0
FFFFF8
FFFFF8
F8F8F8
F8F8F8
F8F8F8
F8F8F8
F8F8F8
F8F8F8
F8F8F8
F8F8F8
F8F8F8
F8F8F8
ENDCHAR
STARTCHAR N
ENCODING 78
SWIDTH 1000 0
DWIDTH 16 0
BBX 13 13 1 0
BITMAP
FFF0
FFF8
FFF8
F8F8
F8F8
F8F8
F8F8
F8F8
F8F8
F8F8
F8F8
F8F8
F8F8
ENDCHAR
STARTCHAR O
ENCODING 79
SWIDTH 1000 0
DWIDTH 16 0
BBX 13 13 1 0
BITMAP
7FF0
FFF8
FFF8
F8F8
F8F8
F8F8
F8F8
F8F8
F8F8
F8F8
FFF8
FFF8
7FF0
ENDCHAR
STARTCHAR P
ENCODING 80
SWIDTH 1000 0
DWIDTH 16 0
BBX 13 13 1 0
BITMAP
FFF0
FFF8
FFF8
F8F8
F8F8
FFF8
FFF0
FFF0
F800
F800
F800
F800
F800
ENDCHAR
STARTCHAR Q
ENCODING 81
SWIDTH 1000 0
DWIDTH 16 0
BBX 13 13 1 0
BITMAP
7FF0
FFF8
FFF8
F8F8
F8F8
F8F8
F8F8
F8F8
F8F8
F8F8
FFF8
FFF8
7FF0
ENDCHAR
STARTCHAR R
ENCODING 82
SWIDTH 1000 0
DWIDTH 16 0
BBX 13 13 1 0
BITMAP
FFF0
FFF8
FFF8
F8F8
F8F8
FFF0
FFF0
FFF0
F8F8
F8F8
F8F8
F8F8
F8F8
ENDCHAR
STARTCHAR S
ENCODING 83
SWIDTH 1000 0
DWIDTH 16 0
BBX 13 13 1 0
BITMAP
7FF8
FFF8
FFF8
F800
F800
FFF0
7FF8
7FF8
00F8
00F8
FFF8
FFF8
FFF0
ENDCHAR
STARTCHAR T
ENCODING 84
SWIDTH 1000 0
DWIDTH 16 0
BBX 13 13 1 0
BITMAP
FFF8
FFF8
FFF8
0F80
0F80
0F80
0F80
0F80
0F80
0F80
0F80
0F80
0F80
ENDCHAR
STARTCHAR U
ENCODING 85
SWIDTH 1000 0
DWIDTH 16 0
BBX 13 13 1 0
BITMAP
F8F8
F8F8
F8F8
F8F8
F8F8
F8F8
F8F8
F8F8
F8F8
F8F8
FFF8
FFF8
7FF0
ENDCHAR
STARTCHAR V
ENCODING 86
SWIDTH 1000 0
DWIDTH 16 0
BBX 13 13 1 0
BITMAP
F8F8
F8F8
F8F8
F8F8
F8F8
F8F8
F8F8
F8F8
F8F8
F8F8
FFF8
FFF8
FFF0
ENDCHAR
STARTCHAR W
ENCODING 87
SWIDTH 1500 0
DWIDTH 24 0
BBX 21 13 1 0
BITMAP
F8F8F8
F8F8F8
F8F8F8
F8F8F8
F8F8F8
F8F8F8
F8F8F8
F8F8F8
F8F8F8
F8F8F8
FFFFF8
FFFFF8
FFFFF0
ENDCHAR
STARTCHAR X
ENCODING 88
SWIDTH 1000 0
DWIDTH 16 0
BBX 13 13 1 0
BITMAP
F8F8
F8F8
F8F8
F8F8
F8F8
7FF0
7FF0
7FF0
F8F8
F8F8
F8F8
F8F8
F8F8
ENDCHAR
STARTCHAR Y
ENCODING 89
SWIDTH 1000 0
DWIDTH 16 0
BBX 13 13 1 0
BITMAP
F8F8
F8F8
F8F8
F8F8
F8F8
FFF8
7FF0
7FF0
0F80
0F80
0F80
0F80
0F80
ENDCHAR
STARTCHAR Z
ENCODING 90
SWIDTH 1000 0
DWIDTH 16 0
BBX 13 13 1 0
BITMAP
FFF8
FFF8
FFF8
00F8
00F8
7FF8
FFF0
FFF0
F800
F800
FFF8
FFF8
FFF8
ENDCHAR
STARTCHAR bracketleft
ENCODING 91
SWIDTH 500 0
DWIDTH 8 0
BBX 8 13 0 0
BITMAP
FF
FF
FF
F8
F8
F8
F8
F8
F8
F8
FF
FF
FF
ENDCHAR
STARTCHAR bracketright
ENCODING 93
SWIDTH 500 0
DWIDTH 8 0
BBX 8 13 0 0
BITMAP
FF
FF
FF
1F
1F
1F
1F
1F
1F
1F
FF
FF
FF
ENDCHAR
STARTCHAR a
ENCODING 97
SWIDTH 1000 0
DWIDTH 16 0
BBX 13 13 0 0
BITMAP
7FF0
FFF8
F8F8
F8F8
F8F8
FFF8
FFF8
FFF8
F8F8
F8F8
F8F8
F8F8
F8F8
ENDCHAR
STARTCHAR b
ENCODING 98
SWIDTH 1000 0
DWIDTH 16 0
BBX 13 13 0 0
BITMAP
FFF0
FFF8
F8F8
F8F8
F8F8
FFF0
FFF0
FFF0
F8F8
F8F8
FFF8
FFF8
FFF0
ENDCHAR
STARTCHAR c
ENCODING 99
SWIDTH 1000 0
DWIDTH 16 0
BBX 13 13 0 0
BITMAP
7FF8
FFF8
FFF8
F800
F800
F800
F800
F800
F800
F800
FFF8
FFF8
7FF8
ENDCHAR
STARTCHAR d
ENCODING 100
SWIDTH 1000 0
DWIDTH 16 0
BBX 13 13 0 0
BITMAP
FFF0
FFF8
F8F8
F8F8
F8F8
F8F8
F8F8
F8F8
F8F8
F8F8
FFF8
FFF8
FFF0
ENDCHAR
STARTCHAR e
ENCODING 101
SWIDTH 1000 0
DWIDTH 16 0
BBX 13 13 0 0
BITMAP
7FF8
FFF8
FFF8
F800
F800
FF80
FF80
FF80
F800
F800
FFF8
FFF8
7FF8
ENDCHAR
STARTCHAR f
ENCODING 102
SWIDTH 1000 0
DWIDTH 16 0
BBX 13 13 0 0
BITMAP
7FF8
FFF8
FFF8
F800
F800
FF80
FF80
FF80
F800
F800
F800
F800
F800
ENDCHAR
STARTCHAR g
ENCODING 103
SWIDTH 1000 0
DWIDTH 16 0
BBX 13 13 0 0
BITMAP
7FF8
FFF8
FFF8
F800
F800
F9F8
F9F8
F9F8
F8F8
F8F8
FFF8
FFF8
7FF8
ENDCHAR
STARTCHAR h
ENCODING 104
SWIDTH 1000 0
DWIDTH 16 0
BBX 13 13 0 0
BITMAP
F8F8
F8F8
F8F8
F8F8
F8F8
FFF8
FFF8
FFF8
F8F8
F8F8
F8F8
F8F8
F8F8
ENDCHAR
STARTCHAR i
ENCODING 105
SWIDTH 500 0
DWIDTH 8 0
BBX 5 13 0 0
BITMAP
F8
F8
F8
F8
F8
F8
F8
F8
F8
F8
F8
F8
F8
ENDCHAR
STARTCHAR j
ENCODING 106
SWIDTH 1000 0
DWIDTH 16 0
BBX 13 13 0 0
BITMAP
00F8
00F8
00F8
00F8
00F8
00F8
00F8
00F8
00F8
00F8
FFF8
FFF8
FFF0
ENDCHAR
STARTCHAR k
ENCODING 107
SWIDTH 1000 0
DWIDTH 16 0
BBX 13 13 0 0
BITMAP
F8F8
F8F8
F8F8
F8F8
F8F8
FFF0
FFF0
FFF0
F8F8
F8F8
F8F8
F8F8
F8F8
ENDCHAR
STARTCHAR l
ENCODING 108
SWIDTH 1000 0
DWIDTH 16 0
BBX 13 13 0 0
BITMAP
F800
F800
F800
F800
F800
F800
F800
F800
F800
F800
FFF8
FFF8
FFF8
ENDCHAR
STARTCHAR m
ENCODING 109
SWIDTH 1500 0
DWIDTH 24 0
BBX 21 13 0 0
BITMAP
FFFFF0
FFFFF8
F8F8F8
F8F8F8
F8F8F8
F8F8F8
F8F8F8
F8F8F8
F8F8F8
F8F8F8
F8F8F8
F8F8F8
F8F8F8
ENDCHAR
STARTCHAR n
ENCODING 110
SWIDTH 1000 0
DWIDTH 16 0
BBX 13 13 0 0
BITMAP
FFF0
FFF8
F8F8
F8F8
F8F8
F8F8
F8F8
F8F8
F8F8
F8F8
F8F8
F8F8
F8F8
ENDCHAR
STARTCHAR o
ENCODING 111
SWIDTH 1000 0
DWIDTH 16 0
BBX 13 13 0 0
BITMAP
7FF0
FFF8
F8F8
F8F8
F8F8
F8F8
F8F8
F8F8
F8F8
F8F8
FFF8
FFF8
7FF0
ENDCHAR
STARTCHAR p
ENCODING 112
SWIDTH 1000 0
DWIDTH 16 0
BBX 13 13 0 0
BITMAP
FFF0
FFF8
F8F8
F8F8
F8F8
FFF8
FFF8
FFF0
F800
F800
F800
F800
F800
ENDCHAR
STARTCHAR q
ENCODING 113
SWIDTH 1000 0
DWIDTH 16 0
BBX 13 13 0 0
BITMAP
7FF0
FFF8
F8F8
F8F8
F8F8
F8F8
F8F8
F8F8
F8F8
F8F8
FFF8
FFF8
7FF0
ENDCHAR
STARTCHAR r
ENCODING 114
SWIDTH 1000 0
DWIDTH 16 0
BBX 13 13 0 0
BITMAP
FFF0
FFF8
F8F8
F8F8
F8F8
FFF0
FFF0
FFF0
F8F8
F8F8
F8F8
F8F8
F8F8
ENDCHAR
STARTCHAR s
ENCODING 115
SWIDTH 1000 0
DWIDTH 16 0
BBX 13 13 0 0
BITMAP
7FF8
FFF8
FFF8
F800
F800
FFF0
FFF8
7FF8
00F8
00F8
FFF8
FFF8
FFF0
ENDCHAR
STARTCHAR t
ENCODING 116
SWIDTH 1000 0
DWIDTH 16 0
BBX 13 13 0 0
BITMAP
FFF8
FFF8
FFF8
0F80
0F80
0F80
0F80
0F80
0F80
0F80
0F80
0F80
0F80
ENDCHAR
STARTCHAR u
ENCODING 117
SWIDTH 1000 0
DWIDTH 16 0
BBX 13 13 0 0
BITMAP
F8F8
F8F8
F8F8
F8F8
F8F8
F8F8
F8F8
F8F8
F8F8
F8F8
F8F8
FFF8
7FF0
ENDCHAR
STARTCHAR v
ENCODING 118
SWIDTH 1000 0
DWIDTH 16 0
BBX 13 13 0 0
BITMAP
F8F8
F8F8
F8F8
F8F8
F8F8
F8F8
F8F8
F8F8
F8F8
F8F8
F8F8
FFF8
FFF0
ENDCHAR
STARTCHAR w
ENCODING 119
SWIDTH 1500 0
DWIDTH 24 0
BBX 21 13 0 0
BITMAP
F8F8F8
F8F8F8
F8F8F8
F8F8F8
F8F8F8
F8F8F8
F8F8F8
F8F8F8
F8F8F8
F8F8F8
F8F8F8
FFFFF8
FFFFF0
ENDCHAR
STARTCHAR x
ENCODING 120
SWIDTH 1000 0
DWIDTH 16 0
BBX 13 13 0 0
BITMAP
F8F8
F8F8
F8F8
F8F8
F8F8
7FF0
7FF0
7FF0
F8F8
F8F8
F8F8
F8F8
F8F8
ENDCHAR
STARTCHAR y
ENCODING 121
SWIDTH 1000 0
DWIDTH 16 0
BBX 13 13 0 0
BITMAP
F8F8
F8F8
F8F8
F8F8
F8F8
FFF8
FFF8
7FF0
0F80
0F80
0F80
0F80
0F80
ENDCHAR
STARTCHAR z
ENCODING 122
SWIDTH 1000 0
DWIDTH 16 0
BBX 13 13 0 0
BITMAP
FFF8
FFF8
FFF8
00F8
00F8
7FF8
FFF8
FFF0
F800
F800
FFF8
FFF8
FFF8
ENDCHAR
STARTCHAR .notdef
ENCODING -1
SWIDTH 500 0
DWIDTH 8 0
BBX 6 16 1 0
BITMAP
FC
84
84
84
84
84
84
84
84
84
84
84
84
84
84
FC
ENDCHAR
STARTCHAR NULL
ENCODING -1
SWIDTH 0 0
DWIDTH 0 0
BBX 1 1 0 0
BITMAP
00
ENDCHAR
STARTCHAR nonmarkingreturn
ENCODING -1
SWIDTH 500 0
DWIDTH 8 0
BBX 1 1 0 0
BITMAP
00
ENDCHAR
ENDFONT
